<svg xmlns="http://www.w3.org/2000/svg" width="1920" height="640" viewBox="0 0 1920 640" xmlns:c2pa="http://c2pa.org/manifest"><metadata><c2pa:manifest>AAAWgmp1bWIAAAAeanVtZGMycGEAEQAQgAAAqgA4m3EDYzJwYQAAABZcanVtYgAAAEdqdW1kYzJtYQARABCAAACqADibcQN1cm46YzJwYTpiYWFiMTFmMy0xZjBiLTQ5MDktYTZhMy1lMmU1MzRmYzIzZjgAAAADl2p1bWIAAAApanVtZGMyYXMAEQAQgAAAqgA4m3EDYzJwYS5hc3NlcnRpb25zAAAAALxqdW1iAAAARGp1bWRjYm9yABEAEIAAAKoAOJtxE2MycGEuaW5ncmVkaWVudC52MwAAAAAYYzJzaJndXEV4awnVGSO56p9SyXIAAABwY2JvcqNpZGM6Zm9ybWF0bWltYWdlL3N2Zyt4bWxqaW5zdGFuY2VJRHgseG1wOmlpZDpiM2E1MzRmMy1iNjk3LTRjMGItOGM2NC0yMzU4Y2U0NTljM2ZscmVsYXRpb25zaGlwaHBhcmVudE9mAAAB4mp1bWIAAABBanVtZGNib3IAEQAQgAAAqgA4m3ETYzJwYS5hY3Rpb25zLnYyAAAAABhjMnNokkINGOZCCK0fLGz4J3oOcAAAAZljYm9yomdhY3Rpb25zgqJmYWN0aW9ua2MycGEub3BlbmVkanBhcmFtZXRlcnOha2luZ3JlZGllbnRzgaJjdXJseC1zZWxmI2p1bWJmPWMycGEuYXNzZXJ0aW9ucy9jMnBhLmluZ3JlZGllbnQudjNkaGFzaFgg7gHyj9wVXnvIGOX/y9JHQA20O/3oJt+55jlT01+u5gikZmFjdGlvbngdY29tLmFudGhyb3BpYy5jbGF1ZGUucHJvdmlkZWRqcGFyYW1ldGVyc6F4H2NvbS5hbnRocm9waWMub3JpZ2luLWNvbmZpZGVuY2VndW5rbm93bmtkZXNjcmlwdGlvbnhmQ2xhdWRlIHByb3ZpZGVkIHRoaXMgZmlsZSBhdCB0aGUgcmVxdWVzdCBvZiBhIHVzZXIgYW5kIG1heSBoYXZlIGNyZWF0ZWQgb3IgbW9kaWZpZWQgdGhlIGZpbGUgY29udGVudHMubXNvZnR3YXJlQWdlbnShZG5hbWVmQ2xhdWRlcmFsbEFjdGlvbnNJbmNsdWRlZPUAAADIanVtYgAAAEBqdW1kY2JvcgARABCAAACqADibcRNjMnBhLmhhc2guZGF0YQAAAAAYYzJzaKtym3RlAYYF08tmj2iqwfwAAACAY2JvcqVjYWxnZnNoYTI1NmNwYWRNAAAAAAAAAAAAAAAAAGRoYXNoWCC0xa0umaUfbdsKNqd9XYB92cbbQmYQNIIPRlsOrqMPCWRuYW1lbmp1bWJmIG1hbmlmZXN0amV4Y2x1c2lvbnOBomVzdGFydBiYZmxlbmd0aBkeBAAAAj5qdW1iAAAAJ2p1bWRjMmNsABEAEIAAAKoAOJtxA2MycGEuY2xhaW0udjIAAAACD2Nib3KlY2FsZ2ZzaGEyNTZpc2lnbmF0dXJleE1zZWxmI2p1bWJmPS9jMnBhL3VybjpjMnBhOmJhYWIxMWYzLTFmMGItNDkwOS1hNmEzLWUyZTUzNGZjMjNmOC9jMnBhLnNpZ25hdHVyZWppbnN0YW5jZUlEeCx4bXA6aWlkOjg3OWJkZDgzLTkxNjItNGE1Yi04MTg4LTA4ZGQ5MDY3YjZhMHJjcmVhdGVkX2Fzc2VydGlvbnODomN1cmx4LXNlbGYjanVtYmY9YzJwYS5hc3NlcnRpb25zL2MycGEuaW5ncmVkaWVudC52M2RoYXNoWCDuAfKP3BVee8gY5f/L0kdADbQ7/egm37nmOVPTX67mCKJjdXJseCpzZWxmI2p1bWJmPWMycGEuYXNzZXJ0aW9ucy9jMnBhLmFjdGlvbnMudjJkaGFzaFgghwq1sgP1C7qGm46tzXcWtTrlPyfwY69t8j01synPJVKiY3VybHgpc2VsZiNqdW1iZj1jMnBhLmFzc2VydGlvbnMvYzJwYS5oYXNoLmRhdGFkaGFzaFggpS+o+4hYiFaYdGPeMFMekSpIBP6WtvNT29gErOYlhCJ0Y2xhaW1fZ2VuZXJhdG9yX2luZm+jZG5hbWVvQW50aHJvcGljIEZpbGVzZ3ZlcnNpb25lMS4wLjBrc3BlY1ZlcnNpb25lMi40LjAAABA4anVtYgAAAChqdW1kYzJjcwARABCAAACqADibcQNjMnBhLnNpZ25hdHVyZQAAABAIY2JvctKEWQISogEmGCFZAgowggIGMIIBjaADAgECAhRA5aAK7sI50L64g/oGQgU9Z1UTADAKBggqhkjOPQQDAzBJMRcwFQYDVQQKEw5BbnRocm9waWMsIFBCQzEuMCwGA1UEAxMlQW50aHJvcGljIENvbnRlbnQgQ3JlZGVudGlhbHMgUm9vdCBDQTAeFw0yNjA4MDcxODQzNTZaFw0yODA4MDYxOTQzNTZaMEQxFzAVBgNVBAoTDkFudGhyb3BpYywgUEJDMSkwJwYDVQQDEyBBbnRocm9waWMgQ2xhdWRlIENvbnRlbnQgU2lnbmluZzBZMBMGByqGSM49AgEGCCqGSM49AwEHA0IABJh6CmvLUBgFFNU0vUKlOVtE6djd17L5SuwX0LemFisBM3dkd/3cyjxFA3Qo5S46fX0/ihY0VZ7mfb9KF703t5OjWDBWMA4GA1UdDwEB/wQEAwIHgDAVBgNVHSUEDjAMBgorBgEEAYPoXgIBMAwGA1UdEwEB/wQCMAAwHwYDVR0jBBgwFoAUzlHiBIFOZFsj+OPEz5o+nMHXXMIwCgYIKoZIzj0EAwMDZwAwZAIwMXMdFJ4BetLLVY7ORuE9noqbbAZOZn/aArXyTwFAZfKrPzxF2vPoJNf1+UCdg1XGAjBwX1zd9WGqYkqmL5SFqw1QySjr1zJfpJM9+1rdDwSPLMOPOjKuiXjoU/pUUeG9RwmhY3BhZFkNngAAAAAAAAAAAAAAAAAAAAAAAAAAAAAAAAAAAAAAAAAAAAAAAAAAAAAAAAAAAAAAAAAAAAAAAAAAAAAAAAAAAAAAAAAAAAAAAAAAAAAAAAAAAAAAAAAAAAAAAAAAAAAAAAAAAAAAAAAAAAAAAAAAAAAAAAAAAAAAAAAAAAAAAAAAAAAAAAAAAAAAAAAAAAAAAAAAAAAAAAAAAAAAAAAAAAAAAAAAAAAAAAAAAAAAAAAAAAAAAAAAAAAAAAAAAAAAAAAAAAAAAAAAAAAAAAAAAAAAAAAAAAAAAAAAAAAAAAAAAAAAAAAAAAAAAAAAAAAAAAAAAAAAAAAAAAAAAAAAAAAAAAAAAAAAAAAAAAAAAAAAAAAAAAAAAAAAAAAAAAAAAAAAAAAAAAAAAAAAAAAAAAAAAAAAAAAAAAAAAAAAAAAAAAAAAAAAAAAAAAAAAAAAAAAAAAAAAAAAAAAAAAAAAAAAAAAAAAAAAAAAAAAAAAAAAAAAAAAAAAAAAAAAAAAAAAAAAAAAAAAAAAAAAAAAAAAAAAAAAAAAAAAAAAAAAAAAAAAAAAAAAAAAAAAAAAAAAAAAAAAAAAAAAAAAAAAAAAAAAAAAAAAAAAAAAAAAAAAAAAAAAAAAAAAAAAAAAAAAAAAAAAAAAAAAAAAAAAAAAAAAAAAAAAAAAAAAAAAAAAAAAAAAAAAAAAAAAAAAAAAAAAAAAAAAAAAAAAAAAAAAAAAAAAAAAAAAAAAAAAAAAAAAAAAAAAAAAAAAAAAAAAAAAAAAAAAAAAAAAAAAAAAAAAAAAAAAAAAAAAAAAAAAAAAAAAAAAAAAAAAAAAAAAAAAAAAAAAAAAAAAAAAAAAAAAAAAAAAAAAAAAAAAAAAAAAAAAAAAAAAAAAAAAAAAAAAAAAAAAAAAAAAAAAAAAAAAAAAAAAAAAAAAAAAAAAAAAAAAAAAAAAAAAAAAAAAAAAAAAAAAAAAAAAAAAAAAAAAAAAAAAAAAAAAAAAAAAAAAAAAAAAAAAAAAAAAAAAAAAAAAAAAAAAAAAAAAAAAAAAAAAAAAAAAAAAAAAAAAAAAAAAAAAAAAAAAAAAAAAAAAAAAAAAAAAAAAAAAAAAAAAAAAAAAAAAAAAAAAAAAAAAAAAAAAAAAAAAAAAAAAAAAAAAAAAAAAAAAAAAAAAAAAAAAAAAAAAAAAAAAAAAAAAAAAAAAAAAAAAAAAAAAAAAAAAAAAAAAAAAAAAAAAAAAAAAAAAAAAAAAAAAAAAAAAAAAAAAAAAAAAAAAAAAAAAAAAAAAAAAAAAAAAAAAAAAAAAAAAAAAAAAAAAAAAAAAAAAAAAAAAAAAAAAAAAAAAAAAAAAAAAAAAAAAAAAAAAAAAAAAAAAAAAAAAAAAAAAAAAAAAAAAAAAAAAAAAAAAAAAAAAAAAAAAAAAAAAAAAAAAAAAAAAAAAAAAAAAAAAAAAAAAAAAAAAAAAAAAAAAAAAAAAAAAAAAAAAAAAAAAAAAAAAAAAAAAAAAAAAAAAAAAAAAAAAAAAAAAAAAAAAAAAAAAAAAAAAAAAAAAAAAAAAAAAAAAAAAAAAAAAAAAAAAAAAAAAAAAAAAAAAAAAAAAAAAAAAAAAAAAAAAAAAAAAAAAAAAAAAAAAAAAAAAAAAAAAAAAAAAAAAAAAAAAAAAAAAAAAAAAAAAAAAAAAAAAAAAAAAAAAAAAAAAAAAAAAAAAAAAAAAAAAAAAAAAAAAAAAAAAAAAAAAAAAAAAAAAAAAAAAAAAAAAAAAAAAAAAAAAAAAAAAAAAAAAAAAAAAAAAAAAAAAAAAAAAAAAAAAAAAAAAAAAAAAAAAAAAAAAAAAAAAAAAAAAAAAAAAAAAAAAAAAAAAAAAAAAAAAAAAAAAAAAAAAAAAAAAAAAAAAAAAAAAAAAAAAAAAAAAAAAAAAAAAAAAAAAAAAAAAAAAAAAAAAAAAAAAAAAAAAAAAAAAAAAAAAAAAAAAAAAAAAAAAAAAAAAAAAAAAAAAAAAAAAAAAAAAAAAAAAAAAAAAAAAAAAAAAAAAAAAAAAAAAAAAAAAAAAAAAAAAAAAAAAAAAAAAAAAAAAAAAAAAAAAAAAAAAAAAAAAAAAAAAAAAAAAAAAAAAAAAAAAAAAAAAAAAAAAAAAAAAAAAAAAAAAAAAAAAAAAAAAAAAAAAAAAAAAAAAAAAAAAAAAAAAAAAAAAAAAAAAAAAAAAAAAAAAAAAAAAAAAAAAAAAAAAAAAAAAAAAAAAAAAAAAAAAAAAAAAAAAAAAAAAAAAAAAAAAAAAAAAAAAAAAAAAAAAAAAAAAAAAAAAAAAAAAAAAAAAAAAAAAAAAAAAAAAAAAAAAAAAAAAAAAAAAAAAAAAAAAAAAAAAAAAAAAAAAAAAAAAAAAAAAAAAAAAAAAAAAAAAAAAAAAAAAAAAAAAAAAAAAAAAAAAAAAAAAAAAAAAAAAAAAAAAAAAAAAAAAAAAAAAAAAAAAAAAAAAAAAAAAAAAAAAAAAAAAAAAAAAAAAAAAAAAAAAAAAAAAAAAAAAAAAAAAAAAAAAAAAAAAAAAAAAAAAAAAAAAAAAAAAAAAAAAAAAAAAAAAAAAAAAAAAAAAAAAAAAAAAAAAAAAAAAAAAAAAAAAAAAAAAAAAAAAAAAAAAAAAAAAAAAAAAAAAAAAAAAAAAAAAAAAAAAAAAAAAAAAAAAAAAAAAAAAAAAAAAAAAAAAAAAAAAAAAAAAAAAAAAAAAAAAAAAAAAAAAAAAAAAAAAAAAAAAAAAAAAAAAAAAAAAAAAAAAAAAAAAAAAAAAAAAAAAAAAAAAAAAAAAAAAAAAAAAAAAAAAAAAAAAAAAAAAAAAAAAAAAAAAAAAAAAAAAAAAAAAAAAAAAAAAAAAAAAAAAAAAAAAAAAAAAAAAAAAAAAAAAAAAAAAAAAAAAAAAAAAAAAAAAAAAAAAAAAAAAAAAAAAAAAAAAAAAAAAAAAAAAAAAAAAAAAAAAAAAAAAAAAAAAAAAAAAAAAAAAAAAAAAAAAAAAAAAAAAAAAAAAAAAAAAAAAAAAAAAAAAAAAAAAAAAAAAAAAAAAAAAAAAAAAAAAAAAAAAAAAAAAAAAAAAAAAAAAAAAAAAAAAAAAAAAAAAAAAAAAAAAAAAAAAAAAAAAAAAAAAAAAAAAAAAAAAAAAAAAAAAAAAAAAAAAAAAAAAAAAAAAAAAAAAAAAAAAAAAAAAAAAAAAAAAAAAAAAAAAAAAAAAAAAAAAAAAAAAAAAAAAAAAAAAAAAAAAAAAAAAAAAAAAAAAAAAAAAAAAAAAAAAAAAAAAAAAAAAAAAAAAAAAAAAAAAAAAAAAAAAAAAAAAAAAAAAAAAAAAAAAAAAAAAAAAAAAAAAAAAAAAAAAAAAAAAAAAAAAAAAAAAAAAAAAAAAAAAAAAAAAAAAAAAAAAAAAAAAAAAAAAAAAAAAAAAAAAAAAAAAAAAAAAAAAAAAAAAAAAAAAAAAAAAAAAAAAAAAAAAAAAAAAAAAAAAAAAAAAAAAAAAAAAAAAAAAAAAAAAAAAAAAAAAAAAAAAAAAAAAAAAAAAAAAAAAAAAAAAAAAAAAAAAAAAAAAAAAAAAAAAAAAAAAAAAAAAAAAAAAAAAAAAAAAAAAAAAAAAAAAAAAAAAAAAAAAAAAAAAAAAAAAAAAAAAAAAAAAAAAAAAAAAAAAAAAAAAAAAAAAAAAAAAAAAAAAAAAAAAAAAAAAAAAAAAAAAAAAAAAAAAAAAAAAAAAAAAAAAAAAAAAAAAAAAAAAAAAAAAAAAAAAAAAAAAAAAAAAAAAAAAAAAAAAAAAAAAAAAAAAAAAAAAAAAAAAAAAAAAAAAAAAAAAAAAAAAAAAAAAAAAAAAAAAAAAAAAAAAAAAAAAAAAAAAAAAAAAAAAAAAAAAAAAAAAAAAAAAAAAAAAAAAAAAAAAAAAAAAAAAAAAAAAAAAAAAAAAAAAAAAAAAAAAAAAAAAAAAAAAAAAAAAAAAAAAAAAAAAAAAAAAAAAAAAAAAAAAAAAAAAAAAAAAAAAAAAAAAAAAAAAAAAAAAAAAAAAAAAAAAAAAAAAAAAAAAAAAAAAAAAAAAAAAAAAAAAAAAAAAAAAAAAAAAAAAAAAAAAAAAAAAAAAAAAAAAAAAAAAAAAAAAAAAAAAAAAAAAAAAAAAAAAAAAAAAAAAAAAAAAAAAAAAAAAAAAAAAAAAAAAAAAAAAAAAAAAAAAAAAAAAAAAAAAAAAAAAAAAAAAAAAAAAAAAAAAAAAAAAAAAAAAAAAAAAAAAAAAAAAAAAAAAAAAAAAAAAAAAAAAAAAAAAAAAAAAAAAAAAAAAAAAAAAAAAAAAAAAAAAAAAAAAAAAAAAAAAAAAAAAAAAAAAAAAAAAAAAAAAAAAAAAAAAAAAAAAAAAAAAAAAAAAAAAAAAAAAAAAAAAAAAAAAAAAAAAAAAAAAAAAAAAAAAAAAAAAAAAAAAAAAAAAAAAAAAAAAAAAAAAAAAAAAAAAAAAAAAAAAAAAAAAAAAAAAAAAAAAAAAAAAAAAAAAAAAAAAAAAAAAAAAAAAAAAAAAAAAAAAAAAAAAAAAAAAAAAAAAAAAAAAAAAAAAAAAAAAAAAAAAAAAAAAAAAAAAAAAAAAAAAAAAAAAAAAAAAAAAAAAAAAAAAAAAAAAAAAAAAAAAAAAAAAAAAAAAAAAAAAAAAAAAAAAAPZYQIT4gkCnok6n8vY9aMyzlhr3Tvyd/5M3yCSVgTp7K6AxH/hbPOLE4BIgx47LMZs31rzWIYK+uYuXH4mJ5JicxVk=</c2pa:manifest></metadata>
<rect width="1920" height="640" fill="#F1F6F4"/>
<g stroke="#D9E8E3" stroke-width="1">
<line x1="0" y1="0" x2="0" y2="640"/>
<line x1="40" y1="0" x2="40" y2="640"/>
<line x1="80" y1="0" x2="80" y2="640"/>
<line x1="120" y1="0" x2="120" y2="640"/>
<line x1="160" y1="0" x2="160" y2="640"/>
<line x1="200" y1="0" x2="200" y2="640"/>
<line x1="240" y1="0" x2="240" y2="640"/>
<line x1="280" y1="0" x2="280" y2="640"/>
<line x1="320" y1="0" x2="320" y2="640"/>
<line x1="360" y1="0" x2="360" y2="640"/>
<line x1="400" y1="0" x2="400" y2="640"/>
<line x1="440" y1="0" x2="440" y2="640"/>
<line x1="480" y1="0" x2="480" y2="640"/>
<line x1="520" y1="0" x2="520" y2="640"/>
<line x1="560" y1="0" x2="560" y2="640"/>
<line x1="600" y1="0" x2="600" y2="640"/>
<line x1="640" y1="0" x2="640" y2="640"/>
<line x1="680" y1="0" x2="680" y2="640"/>
<line x1="720" y1="0" x2="720" y2="640"/>
<line x1="760" y1="0" x2="760" y2="640"/>
<line x1="800" y1="0" x2="800" y2="640"/>
<line x1="840" y1="0" x2="840" y2="640"/>
<line x1="880" y1="0" x2="880" y2="640"/>
<line x1="920" y1="0" x2="920" y2="640"/>
<line x1="960" y1="0" x2="960" y2="640"/>
<line x1="1000" y1="0" x2="1000" y2="640"/>
<line x1="1040" y1="0" x2="1040" y2="640"/>
<line x1="1080" y1="0" x2="1080" y2="640"/>
<line x1="1120" y1="0" x2="1120" y2="640"/>
<line x1="1160" y1="0" x2="1160" y2="640"/>
<line x1="1200" y1="0" x2="1200" y2="640"/>
<line x1="1240" y1="0" x2="1240" y2="640"/>
<line x1="1280" y1="0" x2="1280" y2="640"/>
<line x1="1320" y1="0" x2="1320" y2="640"/>
<line x1="1360" y1="0" x2="1360" y2="640"/>
<line x1="1400" y1="0" x2="1400" y2="640"/>
<line x1="1440" y1="0" x2="1440" y2="640"/>
<line x1="1480" y1="0" x2="1480" y2="640"/>
<line x1="1520" y1="0" x2="1520" y2="640"/>
<line x1="1560" y1="0" x2="1560" y2="640"/>
<line x1="1600" y1="0" x2="1600" y2="640"/>
<line x1="1640" y1="0" x2="1640" y2="640"/>
<line x1="1680" y1="0" x2="1680" y2="640"/>
<line x1="1720" y1="0" x2="1720" y2="640"/>
<line x1="1760" y1="0" x2="1760" y2="640"/>
<line x1="1800" y1="0" x2="1800" y2="640"/>
<line x1="1840" y1="0" x2="1840" y2="640"/>
<line x1="1880" y1="0" x2="1880" y2="640"/>
<line x1="1920" y1="0" x2="1920" y2="640"/>
<line x1="0" y1="0" x2="1920" y2="0"/>
<line x1="0" y1="40" x2="1920" y2="40"/>
<line x1="0" y1="80" x2="1920" y2="80"/>
<line x1="0" y1="120" x2="1920" y2="120"/>
<line x1="0" y1="160" x2="1920" y2="160"/>
<line x1="0" y1="200" x2="1920" y2="200"/>
<line x1="0" y1="240" x2="1920" y2="240"/>
<line x1="0" y1="280" x2="1920" y2="280"/>
<line x1="0" y1="320" x2="1920" y2="320"/>
<line x1="0" y1="360" x2="1920" y2="360"/>
<line x1="0" y1="400" x2="1920" y2="400"/>
<line x1="0" y1="440" x2="1920" y2="440"/>
<line x1="0" y1="480" x2="1920" y2="480"/>
<line x1="0" y1="520" x2="1920" y2="520"/>
<line x1="0" y1="560" x2="1920" y2="560"/>
<line x1="0" y1="600" x2="1920" y2="600"/>
<line x1="0" y1="640" x2="1920" y2="640"/>
</g>
<g stroke="#C3D8D1" stroke-width="1.6">
<line x1="0" y1="0" x2="0" y2="640"/>
<line x1="200" y1="0" x2="200" y2="640"/>
<line x1="400" y1="0" x2="400" y2="640"/>
<line x1="600" y1="0" x2="600" y2="640"/>
<line x1="800" y1="0" x2="800" y2="640"/>
<line x1="1000" y1="0" x2="1000" y2="640"/>
<line x1="1200" y1="0" x2="1200" y2="640"/>
<line x1="1400" y1="0" x2="1400" y2="640"/>
<line x1="1600" y1="0" x2="1600" y2="640"/>
<line x1="1800" y1="0" x2="1800" y2="640"/>
<line x1="0" y1="0" x2="1920" y2="0"/>
<line x1="0" y1="200" x2="1920" y2="200"/>
<line x1="0" y1="400" x2="1920" y2="400"/>
<line x1="0" y1="600" x2="1920" y2="600"/>
</g>
<path d="M 0,550 L 90,550 L 130,550 L 160,524 L 190,550 L 220,550 L 238,568 L 262,445 L 288,588 L 308,550 L 360,550 L 400,502 L 440,550 L 470,550 L 560,550 L 600,550 L 630,524 L 660,550 L 690,550 L 708,568 L 732,445 L 758,588 L 778,550 L 830,550 L 870,502 L 910,550 L 940,550 L 940,550 L 1920,550" fill="none" stroke="#D42F4A" stroke-width="7" stroke-linejoin="round" stroke-linecap="round"/>
<line x1="1150.0" y1="550.0" x2="1145.6" y2="462.1" stroke="#0E3B3F" stroke-width="7.0" stroke-linecap="round"/>
<line x1="1145.6" y1="462.1" x2="1121.6" y2="400.9" stroke="#0E3B3F" stroke-width="5.4" stroke-linecap="round"/>
<line x1="1121.6" y1="400.9" x2="1088.5" y2="363.8" stroke="#0E3B3F" stroke-width="3.8" stroke-linecap="round"/>
<line x1="1088.5" y1="363.8" x2="1056.1" y2="344.7" stroke="#0E3B3F" stroke-width="2.2" stroke-linecap="round"/>
<line x1="1056.1" y1="344.7" x2="1030.2" y2="338.6" stroke="#0E3B3F" stroke-width="1.8" stroke-linecap="round"/>
<line x1="1056.1" y1="344.7" x2="1039.2" y2="323.8" stroke="#0E3B3F" stroke-width="1.8" stroke-linecap="round"/>
<line x1="1088.5" y1="363.8" x2="1073.6" y2="330.5" stroke="#0E3B3F" stroke-width="2.2" stroke-linecap="round"/>
<line x1="1073.6" y1="330.5" x2="1055.5" y2="311.6" stroke="#0E3B3F" stroke-width="1.8" stroke-linecap="round"/>
<line x1="1073.6" y1="330.5" x2="1072.2" y2="303.3" stroke="#0E3B3F" stroke-width="1.8" stroke-linecap="round"/>
<line x1="1121.6" y1="400.9" x2="1119.9" y2="351.7" stroke="#0E3B3F" stroke-width="3.8" stroke-linecap="round"/>
<line x1="1119.9" y1="351.7" x2="1108.7" y2="318.7" stroke="#0E3B3F" stroke-width="2.2" stroke-linecap="round"/>
<line x1="1108.7" y1="318.7" x2="1095.3" y2="297.8" stroke="#0E3B3F" stroke-width="1.8" stroke-linecap="round"/>
<line x1="1108.7" y1="318.7" x2="1106.7" y2="292.4" stroke="#0E3B3F" stroke-width="1.8" stroke-linecap="round"/>
<line x1="1119.9" y1="351.7" x2="1131.7" y2="318.4" stroke="#0E3B3F" stroke-width="2.2" stroke-linecap="round"/>
<line x1="1131.7" y1="318.4" x2="1130.4" y2="292.3" stroke="#0E3B3F" stroke-width="1.8" stroke-linecap="round"/>
<line x1="1131.7" y1="318.4" x2="1148.6" y2="297.8" stroke="#0E3B3F" stroke-width="1.8" stroke-linecap="round"/>
<line x1="1145.6" y1="462.1" x2="1168.0" y2="399.3" stroke="#0E3B3F" stroke-width="5.4" stroke-linecap="round"/>
<line x1="1168.0" y1="399.3" x2="1164.2" y2="351.3" stroke="#0E3B3F" stroke-width="3.8" stroke-linecap="round"/>
<line x1="1164.2" y1="351.3" x2="1149.4" y2="320.8" stroke="#0E3B3F" stroke-width="2.2" stroke-linecap="round"/>
<line x1="1149.4" y1="320.8" x2="1133.0" y2="303.7" stroke="#0E3B3F" stroke-width="1.8" stroke-linecap="round"/>
<line x1="1149.4" y1="320.8" x2="1147.2" y2="296.5" stroke="#0E3B3F" stroke-width="1.8" stroke-linecap="round"/>
<line x1="1164.2" y1="351.3" x2="1171.7" y2="316.0" stroke="#0E3B3F" stroke-width="2.2" stroke-linecap="round"/>
<line x1="1171.7" y1="316.0" x2="1167.2" y2="290.1" stroke="#0E3B3F" stroke-width="1.8" stroke-linecap="round"/>
<line x1="1171.7" y1="316.0" x2="1185.7" y2="294.9" stroke="#0E3B3F" stroke-width="1.8" stroke-linecap="round"/>
<line x1="1168.0" y1="399.3" x2="1201.8" y2="367.0" stroke="#0E3B3F" stroke-width="3.8" stroke-linecap="round"/>
<line x1="1201.8" y1="367.0" x2="1217.2" y2="338.0" stroke="#0E3B3F" stroke-width="2.2" stroke-linecap="round"/>
<line x1="1217.2" y1="338.0" x2="1219.4" y2="314.0" stroke="#0E3B3F" stroke-width="1.8" stroke-linecap="round"/>
<line x1="1217.2" y1="338.0" x2="1233.6" y2="321.8" stroke="#0E3B3F" stroke-width="1.8" stroke-linecap="round"/>
<line x1="1201.8" y1="367.0" x2="1233.9" y2="351.9" stroke="#0E3B3F" stroke-width="2.2" stroke-linecap="round"/>
<line x1="1233.9" y1="351.9" x2="1254.1" y2="334.3" stroke="#0E3B3F" stroke-width="1.8" stroke-linecap="round"/>
<line x1="1233.9" y1="351.9" x2="1259.4" y2="350.7" stroke="#0E3B3F" stroke-width="1.8" stroke-linecap="round"/>
<circle cx="1145.6" cy="462.1" r="9" fill="#F1F6F4" stroke="#0E3B3F" stroke-width="3.5"/>
<circle cx="1121.6" cy="400.9" r="7" fill="#F1F6F4" stroke="#0E3B3F" stroke-width="3.5"/>
<circle cx="1088.5" cy="363.8" r="6" fill="#F1F6F4" stroke="#0E3B3F" stroke-width="3.5"/>
<circle cx="1056.1" cy="344.7" r="4" fill="#F1F6F4" stroke="#0E3B3F" stroke-width="3.5"/>
<circle cx="1073.6" cy="330.5" r="4" fill="#F1F6F4" stroke="#0E3B3F" stroke-width="3.5"/>
<circle cx="1119.9" cy="351.7" r="6" fill="#F1F6F4" stroke="#0E3B3F" stroke-width="3.5"/>
<circle cx="1108.7" cy="318.7" r="4" fill="#F1F6F4" stroke="#0E3B3F" stroke-width="3.5"/>
<circle cx="1131.7" cy="318.4" r="4" fill="#F1F6F4" stroke="#0E3B3F" stroke-width="3.5"/>
<circle cx="1168.0" cy="399.3" r="7" fill="#F1F6F4" stroke="#0E3B3F" stroke-width="3.5"/>
<circle cx="1164.2" cy="351.3" r="6" fill="#F1F6F4" stroke="#0E3B3F" stroke-width="3.5"/>
<circle cx="1149.4" cy="320.8" r="4" fill="#F1F6F4" stroke="#0E3B3F" stroke-width="3.5"/>
<circle cx="1171.7" cy="316.0" r="4" fill="#F1F6F4" stroke="#0E3B3F" stroke-width="3.5"/>
<circle cx="1201.8" cy="367.0" r="6" fill="#F1F6F4" stroke="#0E3B3F" stroke-width="3.5"/>
<circle cx="1217.2" cy="338.0" r="4" fill="#F1F6F4" stroke="#0E3B3F" stroke-width="3.5"/>
<circle cx="1233.9" cy="351.9" r="4" fill="#F1F6F4" stroke="#0E3B3F" stroke-width="3.5"/>
<circle cx="1030.2" cy="338.6" r="8" fill="#D42F4A"/>
<circle cx="1039.2" cy="323.8" r="8" fill="#2E7D5B"/>
<circle cx="1055.5" cy="311.6" r="8" fill="#2E7D5B"/>
<circle cx="1072.2" cy="303.3" r="8" fill="#D42F4A"/>
<circle cx="1095.3" cy="297.8" r="8" fill="#2E7D5B"/>
<circle cx="1106.7" cy="292.4" r="8" fill="#2E7D5B"/>
<circle cx="1130.4" cy="292.3" r="8" fill="#2E7D5B"/>
<circle cx="1148.6" cy="297.8" r="8" fill="#D42F4A"/>
<circle cx="1133.0" cy="303.7" r="8" fill="#2E7D5B"/>
<circle cx="1147.2" cy="296.5" r="8" fill="#D42F4A"/>
<circle cx="1167.2" cy="290.1" r="8" fill="#D42F4A"/>
<circle cx="1185.7" cy="294.9" r="8" fill="#2E7D5B"/>
<circle cx="1219.4" cy="314.0" r="8" fill="#2E7D5B"/>
<circle cx="1233.6" cy="321.8" r="8" fill="#D42F4A"/>
<circle cx="1254.1" cy="334.3" r="8" fill="#2E7D5B"/>
<circle cx="1259.4" cy="350.7" r="8" fill="#2E7D5B"/>
<line x1="1305.0" y1="550.0" x2="1308.2" y2="442.0" stroke="#0E3B3F" stroke-width="7.0" stroke-linecap="round"/>
<line x1="1308.2" y1="442.0" x2="1283.3" y2="369.5" stroke="#0E3B3F" stroke-width="5.4" stroke-linecap="round"/>
<line x1="1283.3" y1="369.5" x2="1246.9" y2="325.7" stroke="#0E3B3F" stroke-width="3.8" stroke-linecap="round"/>
<line x1="1246.9" y1="325.7" x2="1210.4" y2="309.3" stroke="#0E3B3F" stroke-width="2.2" stroke-linecap="round"/>
<line x1="1210.4" y1="309.3" x2="1181.5" y2="308.5" stroke="#0E3B3F" stroke-width="1.8" stroke-linecap="round"/>
<line x1="1210.4" y1="309.3" x2="1189.5" y2="288.7" stroke="#0E3B3F" stroke-width="1.8" stroke-linecap="round"/>
<line x1="1246.9" y1="325.7" x2="1237.0" y2="285.6" stroke="#0E3B3F" stroke-width="2.2" stroke-linecap="round"/>
<line x1="1237.0" y1="285.6" x2="1217.9" y2="260.8" stroke="#0E3B3F" stroke-width="1.8" stroke-linecap="round"/>
<line x1="1237.0" y1="285.6" x2="1237.7" y2="255.4" stroke="#0E3B3F" stroke-width="1.8" stroke-linecap="round"/>
<line x1="1283.3" y1="369.5" x2="1285.0" y2="315.2" stroke="#0E3B3F" stroke-width="3.8" stroke-linecap="round"/>
<line x1="1285.0" y1="315.2" x2="1274.4" y2="276.5" stroke="#0E3B3F" stroke-width="2.2" stroke-linecap="round"/>
<line x1="1274.4" y1="276.5" x2="1255.3" y2="254.5" stroke="#0E3B3F" stroke-width="1.8" stroke-linecap="round"/>
<line x1="1274.4" y1="276.5" x2="1275.9" y2="246.5" stroke="#0E3B3F" stroke-width="1.8" stroke-linecap="round"/>
<line x1="1285.0" y1="315.2" x2="1299.4" y2="278.3" stroke="#0E3B3F" stroke-width="2.2" stroke-linecap="round"/>
<line x1="1299.4" y1="278.3" x2="1300.2" y2="248.4" stroke="#0E3B3F" stroke-width="1.8" stroke-linecap="round"/>
<line x1="1299.4" y1="278.3" x2="1319.3" y2="257.5" stroke="#0E3B3F" stroke-width="1.8" stroke-linecap="round"/>
<line x1="1308.2" y1="442.0" x2="1338.7" y2="369.5" stroke="#0E3B3F" stroke-width="5.4" stroke-linecap="round"/>
<line x1="1338.7" y1="369.5" x2="1341.7" y2="313.8" stroke="#0E3B3F" stroke-width="3.8" stroke-linecap="round"/>
<line x1="1341.7" y1="313.8" x2="1333.1" y2="272.4" stroke="#0E3B3F" stroke-width="2.2" stroke-linecap="round"/>
<line x1="1333.1" y1="272.4" x2="1316.7" y2="246.8" stroke="#0E3B3F" stroke-width="1.8" stroke-linecap="round"/>
<line x1="1333.1" y1="272.4" x2="1335.8" y2="242.3" stroke="#0E3B3F" stroke-width="1.8" stroke-linecap="round"/>
<line x1="1341.7" y1="313.8" x2="1359.5" y2="275.8" stroke="#0E3B3F" stroke-width="2.2" stroke-linecap="round"/>
<line x1="1359.5" y1="275.8" x2="1364.0" y2="244.8" stroke="#0E3B3F" stroke-width="1.8" stroke-linecap="round"/>
<line x1="1359.5" y1="275.8" x2="1381.8" y2="254.2" stroke="#0E3B3F" stroke-width="1.8" stroke-linecap="round"/>
<line x1="1338.7" y1="369.5" x2="1378.2" y2="328.7" stroke="#0E3B3F" stroke-width="3.8" stroke-linecap="round"/>
<line x1="1378.2" y1="328.7" x2="1392.9" y2="289.9" stroke="#0E3B3F" stroke-width="2.2" stroke-linecap="round"/>
<line x1="1392.9" y1="289.9" x2="1393.4" y2="260.2" stroke="#0E3B3F" stroke-width="1.8" stroke-linecap="round"/>
<line x1="1392.9" y1="289.9" x2="1415.1" y2="268.9" stroke="#0E3B3F" stroke-width="1.8" stroke-linecap="round"/>
<line x1="1378.2" y1="328.7" x2="1414.6" y2="312.5" stroke="#0E3B3F" stroke-width="2.2" stroke-linecap="round"/>
<line x1="1414.6" y1="312.5" x2="1434.8" y2="291.1" stroke="#0E3B3F" stroke-width="1.8" stroke-linecap="round"/>
<line x1="1414.6" y1="312.5" x2="1444.3" y2="310.4" stroke="#0E3B3F" stroke-width="1.8" stroke-linecap="round"/>
<circle cx="1308.2" cy="442.0" r="9" fill="#F1F6F4" stroke="#0E3B3F" stroke-width="3.5"/>
<circle cx="1283.3" cy="369.5" r="7" fill="#F1F6F4" stroke="#0E3B3F" stroke-width="3.5"/>
<circle cx="1246.9" cy="325.7" r="6" fill="#F1F6F4" stroke="#0E3B3F" stroke-width="3.5"/>
<circle cx="1210.4" cy="309.3" r="4" fill="#F1F6F4" stroke="#0E3B3F" stroke-width="3.5"/>
<circle cx="1237.0" cy="285.6" r="4" fill="#F1F6F4" stroke="#0E3B3F" stroke-width="3.5"/>
<circle cx="1285.0" cy="315.2" r="6" fill="#F1F6F4" stroke="#0E3B3F" stroke-width="3.5"/>
<circle cx="1274.4" cy="276.5" r="4" fill="#F1F6F4" stroke="#0E3B3F" stroke-width="3.5"/>
<circle cx="1299.4" cy="278.3" r="4" fill="#F1F6F4" stroke="#0E3B3F" stroke-width="3.5"/>
<circle cx="1338.7" cy="369.5" r="7" fill="#F1F6F4" stroke="#0E3B3F" stroke-width="3.5"/>
<circle cx="1341.7" cy="313.8" r="6" fill="#F1F6F4" stroke="#0E3B3F" stroke-width="3.5"/>
<circle cx="1333.1" cy="272.4" r="4" fill="#F1F6F4" stroke="#0E3B3F" stroke-width="3.5"/>
<circle cx="1359.5" cy="275.8" r="4" fill="#F1F6F4" stroke="#0E3B3F" stroke-width="3.5"/>
<circle cx="1378.2" cy="328.7" r="6" fill="#F1F6F4" stroke="#0E3B3F" stroke-width="3.5"/>
<circle cx="1392.9" cy="289.9" r="4" fill="#F1F6F4" stroke="#0E3B3F" stroke-width="3.5"/>
<circle cx="1414.6" cy="312.5" r="4" fill="#F1F6F4" stroke="#0E3B3F" stroke-width="3.5"/>
<circle cx="1181.5" cy="308.5" r="8" fill="#2E7D5B"/>
<circle cx="1189.5" cy="288.7" r="8" fill="#2E7D5B"/>
<circle cx="1217.9" cy="260.8" r="8" fill="#D42F4A"/>
<circle cx="1237.7" cy="255.4" r="8" fill="#2E7D5B"/>
<circle cx="1255.3" cy="254.5" r="8" fill="#2E7D5B"/>
<circle cx="1275.9" cy="246.5" r="8" fill="#2E7D5B"/>
<circle cx="1300.2" cy="248.4" r="8" fill="#D42F4A"/>
<circle cx="1319.3" cy="257.5" r="8" fill="#2E7D5B"/>
<circle cx="1316.7" cy="246.8" r="8" fill="#2E7D5B"/>
<circle cx="1335.8" cy="242.3" r="8" fill="#2E7D5B"/>
<circle cx="1364.0" cy="244.8" r="8" fill="#2E7D5B"/>
<circle cx="1381.8" cy="254.2" r="8" fill="#2E7D5B"/>
<circle cx="1393.4" cy="260.2" r="8" fill="#2E7D5B"/>
<circle cx="1415.1" cy="268.9" r="8" fill="#2E7D5B"/>
<circle cx="1434.8" cy="291.1" r="8" fill="#D42F4A"/>
<circle cx="1444.3" cy="310.4" r="8" fill="#2E7D5B"/>
<line x1="1460.0" y1="550.0" x2="1458.1" y2="454.0" stroke="#0E3B3F" stroke-width="7.0" stroke-linecap="round"/>
<line x1="1458.1" y1="454.0" x2="1429.2" y2="388.9" stroke="#0E3B3F" stroke-width="5.4" stroke-linecap="round"/>
<line x1="1429.2" y1="388.9" x2="1394.7" y2="352.0" stroke="#0E3B3F" stroke-width="3.8" stroke-linecap="round"/>
<line x1="1394.7" y1="352.0" x2="1361.0" y2="335.7" stroke="#0E3B3F" stroke-width="2.2" stroke-linecap="round"/>
<line x1="1361.0" y1="335.7" x2="1333.3" y2="332.0" stroke="#0E3B3F" stroke-width="1.8" stroke-linecap="round"/>
<line x1="1361.0" y1="335.7" x2="1342.0" y2="315.4" stroke="#0E3B3F" stroke-width="1.8" stroke-linecap="round"/>
<line x1="1394.7" y1="352.0" x2="1379.1" y2="319.7" stroke="#0E3B3F" stroke-width="2.2" stroke-linecap="round"/>
<line x1="1379.1" y1="319.7" x2="1361.2" y2="301.4" stroke="#0E3B3F" stroke-width="1.8" stroke-linecap="round"/>
<line x1="1379.1" y1="319.7" x2="1377.0" y2="293.3" stroke="#0E3B3F" stroke-width="1.8" stroke-linecap="round"/>
<line x1="1429.2" y1="388.9" x2="1423.1" y2="337.5" stroke="#0E3B3F" stroke-width="3.8" stroke-linecap="round"/>
<line x1="1423.1" y1="337.5" x2="1405.1" y2="305.5" stroke="#0E3B3F" stroke-width="2.2" stroke-linecap="round"/>
<line x1="1405.1" y1="305.5" x2="1384.7" y2="289.2" stroke="#0E3B3F" stroke-width="1.8" stroke-linecap="round"/>
<line x1="1405.1" y1="305.5" x2="1398.3" y2="279.6" stroke="#0E3B3F" stroke-width="1.8" stroke-linecap="round"/>
<line x1="1423.1" y1="337.5" x2="1430.1" y2="299.9" stroke="#0E3B3F" stroke-width="2.2" stroke-linecap="round"/>
<line x1="1430.1" y1="299.9" x2="1423.9" y2="271.8" stroke="#0E3B3F" stroke-width="1.8" stroke-linecap="round"/>
<line x1="1430.1" y1="299.9" x2="1442.5" y2="275.2" stroke="#0E3B3F" stroke-width="1.8" stroke-linecap="round"/>
<line x1="1458.1" y1="454.0" x2="1481.2" y2="388.4" stroke="#0E3B3F" stroke-width="5.4" stroke-linecap="round"/>
<line x1="1481.2" y1="388.4" x2="1485.2" y2="338.3" stroke="#0E3B3F" stroke-width="3.8" stroke-linecap="round"/>
<line x1="1485.2" y1="338.3" x2="1477.9" y2="303.6" stroke="#0E3B3F" stroke-width="2.2" stroke-linecap="round"/>
<line x1="1477.9" y1="303.6" x2="1463.5" y2="281.9" stroke="#0E3B3F" stroke-width="1.8" stroke-linecap="round"/>
<line x1="1477.9" y1="303.6" x2="1483.8" y2="277.7" stroke="#0E3B3F" stroke-width="1.8" stroke-linecap="round"/>
<line x1="1485.2" y1="338.3" x2="1498.8" y2="303.2" stroke="#0E3B3F" stroke-width="2.2" stroke-linecap="round"/>
<line x1="1498.8" y1="303.2" x2="1498.4" y2="276.6" stroke="#0E3B3F" stroke-width="1.8" stroke-linecap="round"/>
<line x1="1498.8" y1="303.2" x2="1517.6" y2="283.0" stroke="#0E3B3F" stroke-width="1.8" stroke-linecap="round"/>
<line x1="1481.2" y1="388.4" x2="1516.1" y2="348.9" stroke="#0E3B3F" stroke-width="3.8" stroke-linecap="round"/>
<line x1="1516.1" y1="348.9" x2="1529.2" y2="311.4" stroke="#0E3B3F" stroke-width="2.2" stroke-linecap="round"/>
<line x1="1529.2" y1="311.4" x2="1528.5" y2="282.2" stroke="#0E3B3F" stroke-width="1.8" stroke-linecap="round"/>
<line x1="1529.2" y1="311.4" x2="1546.4" y2="289.1" stroke="#0E3B3F" stroke-width="1.8" stroke-linecap="round"/>
<line x1="1516.1" y1="348.9" x2="1551.5" y2="331.0" stroke="#0E3B3F" stroke-width="2.2" stroke-linecap="round"/>
<line x1="1551.5" y1="331.0" x2="1571.0" y2="310.4" stroke="#0E3B3F" stroke-width="1.8" stroke-linecap="round"/>
<line x1="1551.5" y1="331.0" x2="1581.3" y2="326.1" stroke="#0E3B3F" stroke-width="1.8" stroke-linecap="round"/>
<circle cx="1458.1" cy="454.0" r="9" fill="#F1F6F4" stroke="#0E3B3F" stroke-width="3.5"/>
<circle cx="1429.2" cy="388.9" r="7" fill="#F1F6F4" stroke="#0E3B3F" stroke-width="3.5"/>
<circle cx="1394.7" cy="352.0" r="6" fill="#F1F6F4" stroke="#0E3B3F" stroke-width="3.5"/>
<circle cx="1361.0" cy="335.7" r="4" fill="#F1F6F4" stroke="#0E3B3F" stroke-width="3.5"/>
<circle cx="1379.1" cy="319.7" r="4" fill="#F1F6F4" stroke="#0E3B3F" stroke-width="3.5"/>
<circle cx="1423.1" cy="337.5" r="6" fill="#F1F6F4" stroke="#0E3B3F" stroke-width="3.5"/>
<circle cx="1405.1" cy="305.5" r="4" fill="#F1F6F4" stroke="#0E3B3F" stroke-width="3.5"/>
<circle cx="1430.1" cy="299.9" r="4" fill="#F1F6F4" stroke="#0E3B3F" stroke-width="3.5"/>
<circle cx="1481.2" cy="388.4" r="7" fill="#F1F6F4" stroke="#0E3B3F" stroke-width="3.5"/>
<circle cx="1485.2" cy="338.3" r="6" fill="#F1F6F4" stroke="#0E3B3F" stroke-width="3.5"/>
<circle cx="1477.9" cy="303.6" r="4" fill="#F1F6F4" stroke="#0E3B3F" stroke-width="3.5"/>
<circle cx="1498.8" cy="303.2" r="4" fill="#F1F6F4" stroke="#0E3B3F" stroke-width="3.5"/>
<circle cx="1516.1" cy="348.9" r="6" fill="#F1F6F4" stroke="#0E3B3F" stroke-width="3.5"/>
<circle cx="1529.2" cy="311.4" r="4" fill="#F1F6F4" stroke="#0E3B3F" stroke-width="3.5"/>
<circle cx="1551.5" cy="331.0" r="4" fill="#F1F6F4" stroke="#0E3B3F" stroke-width="3.5"/>
<circle cx="1333.3" cy="332.0" r="8" fill="#D42F4A"/>
<circle cx="1342.0" cy="315.4" r="8" fill="#2E7D5B"/>
<circle cx="1361.2" cy="301.4" r="8" fill="#2E7D5B"/>
<circle cx="1377.0" cy="293.3" r="8" fill="#2E7D5B"/>
<circle cx="1384.7" cy="289.2" r="8" fill="#D42F4A"/>
<circle cx="1398.3" cy="279.6" r="8" fill="#2E7D5B"/>
<circle cx="1423.9" cy="271.8" r="8" fill="#2E7D5B"/>
<circle cx="1442.5" cy="275.2" r="8" fill="#D42F4A"/>
<circle cx="1463.5" cy="281.9" r="8" fill="#D42F4A"/>
<circle cx="1483.8" cy="277.7" r="8" fill="#2E7D5B"/>
<circle cx="1498.4" cy="276.6" r="8" fill="#2E7D5B"/>
<circle cx="1517.6" cy="283.0" r="8" fill="#D42F4A"/>
<circle cx="1528.5" cy="282.2" r="8" fill="#2E7D5B"/>
<circle cx="1546.4" cy="289.1" r="8" fill="#D42F4A"/>
<circle cx="1571.0" cy="310.4" r="8" fill="#2E7D5B"/>
<circle cx="1581.3" cy="326.1" r="8" fill="#D42F4A"/>
<line x1="1615.0" y1="550.0" x2="1619.6" y2="434.1" stroke="#0E3B3F" stroke-width="7.0" stroke-linecap="round"/>
<line x1="1619.6" y1="434.1" x2="1598.6" y2="349.7" stroke="#0E3B3F" stroke-width="5.4" stroke-linecap="round"/>
<line x1="1598.6" y1="349.7" x2="1566.6" y2="296.3" stroke="#0E3B3F" stroke-width="3.8" stroke-linecap="round"/>
<line x1="1566.6" y1="296.3" x2="1532.0" y2="268.2" stroke="#0E3B3F" stroke-width="2.2" stroke-linecap="round"/>
<line x1="1532.0" y1="268.2" x2="1499.7" y2="258.2" stroke="#0E3B3F" stroke-width="1.8" stroke-linecap="round"/>
<line x1="1532.0" y1="268.2" x2="1513.6" y2="241.1" stroke="#0E3B3F" stroke-width="1.8" stroke-linecap="round"/>
<line x1="1566.6" y1="296.3" x2="1559.6" y2="250.8" stroke="#0E3B3F" stroke-width="2.2" stroke-linecap="round"/>
<line x1="1559.6" y1="250.8" x2="1544.8" y2="221.8" stroke="#0E3B3F" stroke-width="1.8" stroke-linecap="round"/>
<line x1="1559.6" y1="250.8" x2="1567.9" y2="218.8" stroke="#0E3B3F" stroke-width="1.8" stroke-linecap="round"/>
<line x1="1598.6" y1="349.7" x2="1602.5" y2="287.2" stroke="#0E3B3F" stroke-width="3.8" stroke-linecap="round"/>
<line x1="1602.5" y1="287.2" x2="1590.7" y2="243.2" stroke="#0E3B3F" stroke-width="2.2" stroke-linecap="round"/>
<line x1="1590.7" y1="243.2" x2="1572.9" y2="214.8" stroke="#0E3B3F" stroke-width="1.8" stroke-linecap="round"/>
<line x1="1590.7" y1="243.2" x2="1590.7" y2="210.6" stroke="#0E3B3F" stroke-width="1.8" stroke-linecap="round"/>
<line x1="1602.5" y1="287.2" x2="1620.3" y2="243.4" stroke="#0E3B3F" stroke-width="2.2" stroke-linecap="round"/>
<line x1="1620.3" y1="243.4" x2="1620.4" y2="210.3" stroke="#0E3B3F" stroke-width="1.8" stroke-linecap="round"/>
<line x1="1620.3" y1="243.4" x2="1645.3" y2="220.0" stroke="#0E3B3F" stroke-width="1.8" stroke-linecap="round"/>
<line x1="1619.6" y1="434.1" x2="1651.7" y2="354.2" stroke="#0E3B3F" stroke-width="5.4" stroke-linecap="round"/>
<line x1="1651.7" y1="354.2" x2="1652.7" y2="289.2" stroke="#0E3B3F" stroke-width="3.8" stroke-linecap="round"/>
<line x1="1652.7" y1="289.2" x2="1636.4" y2="243.1" stroke="#0E3B3F" stroke-width="2.2" stroke-linecap="round"/>
<line x1="1636.4" y1="243.1" x2="1613.0" y2="215.0" stroke="#0E3B3F" stroke-width="1.8" stroke-linecap="round"/>
<line x1="1636.4" y1="243.1" x2="1633.1" y2="206.7" stroke="#0E3B3F" stroke-width="1.8" stroke-linecap="round"/>
<line x1="1652.7" y1="289.2" x2="1670.4" y2="245.4" stroke="#0E3B3F" stroke-width="2.2" stroke-linecap="round"/>
<line x1="1670.4" y1="245.4" x2="1674.0" y2="210.0" stroke="#0E3B3F" stroke-width="1.8" stroke-linecap="round"/>
<line x1="1670.4" y1="245.4" x2="1691.4" y2="218.2" stroke="#0E3B3F" stroke-width="1.8" stroke-linecap="round"/>
<line x1="1651.7" y1="354.2" x2="1694.7" y2="308.3" stroke="#0E3B3F" stroke-width="3.8" stroke-linecap="round"/>
<line x1="1694.7" y1="308.3" x2="1711.1" y2="265.1" stroke="#0E3B3F" stroke-width="2.2" stroke-linecap="round"/>
<line x1="1711.1" y1="265.1" x2="1708.3" y2="232.2" stroke="#0E3B3F" stroke-width="1.8" stroke-linecap="round"/>
<line x1="1711.1" y1="265.1" x2="1735.8" y2="240.9" stroke="#0E3B3F" stroke-width="1.8" stroke-linecap="round"/>
<line x1="1694.7" y1="308.3" x2="1734.2" y2="288.7" stroke="#0E3B3F" stroke-width="2.2" stroke-linecap="round"/>
<line x1="1734.2" y1="288.7" x2="1758.6" y2="265.8" stroke="#0E3B3F" stroke-width="1.8" stroke-linecap="round"/>
<line x1="1734.2" y1="288.7" x2="1765.1" y2="287.0" stroke="#0E3B3F" stroke-width="1.8" stroke-linecap="round"/>
<circle cx="1619.6" cy="434.1" r="9" fill="#F1F6F4" stroke="#0E3B3F" stroke-width="3.5"/>
<circle cx="1598.6" cy="349.7" r="7" fill="#F1F6F4" stroke="#0E3B3F" stroke-width="3.5"/>
<circle cx="1566.6" cy="296.3" r="6" fill="#F1F6F4" stroke="#0E3B3F" stroke-width="3.5"/>
<circle cx="1532.0" cy="268.2" r="4" fill="#F1F6F4" stroke="#0E3B3F" stroke-width="3.5"/>
<circle cx="1559.6" cy="250.8" r="4" fill="#F1F6F4" stroke="#0E3B3F" stroke-width="3.5"/>
<circle cx="1602.5" cy="287.2" r="6" fill="#F1F6F4" stroke="#0E3B3F" stroke-width="3.5"/>
<circle cx="1590.7" cy="243.2" r="4" fill="#F1F6F4" stroke="#0E3B3F" stroke-width="3.5"/>
<circle cx="1620.3" cy="243.4" r="4" fill="#F1F6F4" stroke="#0E3B3F" stroke-width="3.5"/>
<circle cx="1651.7" cy="354.2" r="7" fill="#F1F6F4" stroke="#0E3B3F" stroke-width="3.5"/>
<circle cx="1652.7" cy="289.2" r="6" fill="#F1F6F4" stroke="#0E3B3F" stroke-width="3.5"/>
<circle cx="1636.4" cy="243.1" r="4" fill="#F1F6F4" stroke="#0E3B3F" stroke-width="3.5"/>
<circle cx="1670.4" cy="245.4" r="4" fill="#F1F6F4" stroke="#0E3B3F" stroke-width="3.5"/>
<circle cx="1694.7" cy="308.3" r="6" fill="#F1F6F4" stroke="#0E3B3F" stroke-width="3.5"/>
<circle cx="1711.1" cy="265.1" r="4" fill="#F1F6F4" stroke="#0E3B3F" stroke-width="3.5"/>
<circle cx="1734.2" cy="288.7" r="4" fill="#F1F6F4" stroke="#0E3B3F" stroke-width="3.5"/>
<circle cx="1499.7" cy="258.2" r="8" fill="#2E7D5B"/>
<circle cx="1513.6" cy="241.1" r="8" fill="#D42F4A"/>
<circle cx="1544.8" cy="221.8" r="8" fill="#2E7D5B"/>
<circle cx="1567.9" cy="218.8" r="8" fill="#2E7D5B"/>
<circle cx="1572.9" cy="214.8" r="8" fill="#2E7D5B"/>
<circle cx="1590.7" cy="210.6" r="8" fill="#D42F4A"/>
<circle cx="1620.4" cy="210.3" r="8" fill="#D42F4A"/>
<circle cx="1645.3" cy="220.0" r="8" fill="#2E7D5B"/>
<circle cx="1613.0" cy="215.0" r="8" fill="#D42F4A"/>
<circle cx="1633.1" cy="206.7" r="8" fill="#2E7D5B"/>
<circle cx="1674.0" cy="210.0" r="8" fill="#D42F4A"/>
<circle cx="1691.4" cy="218.2" r="8" fill="#D42F4A"/>
<circle cx="1708.3" cy="232.2" r="8" fill="#2E7D5B"/>
<circle cx="1735.8" cy="240.9" r="8" fill="#D42F4A"/>
<circle cx="1758.6" cy="265.8" r="8" fill="#D42F4A"/>
<circle cx="1765.1" cy="287.0" r="8" fill="#D42F4A"/>
<line x1="1770.0" y1="550.0" x2="1766.4" y2="460.1" stroke="#0E3B3F" stroke-width="7.0" stroke-linecap="round"/>
<line x1="1766.4" y1="460.1" x2="1739.6" y2="399.7" stroke="#0E3B3F" stroke-width="5.4" stroke-linecap="round"/>
<line x1="1739.6" y1="399.7" x2="1708.3" y2="364.8" stroke="#0E3B3F" stroke-width="3.8" stroke-linecap="round"/>
<line x1="1708.3" y1="364.8" x2="1677.5" y2="349.3" stroke="#0E3B3F" stroke-width="2.2" stroke-linecap="round"/>
<line x1="1677.5" y1="349.3" x2="1653.1" y2="344.7" stroke="#0E3B3F" stroke-width="1.8" stroke-linecap="round"/>
<line x1="1677.5" y1="349.3" x2="1658.7" y2="332.0" stroke="#0E3B3F" stroke-width="1.8" stroke-linecap="round"/>
<line x1="1708.3" y1="364.8" x2="1693.4" y2="333.6" stroke="#0E3B3F" stroke-width="2.2" stroke-linecap="round"/>
<line x1="1693.4" y1="333.6" x2="1676.6" y2="314.8" stroke="#0E3B3F" stroke-width="1.8" stroke-linecap="round"/>
<line x1="1693.4" y1="333.6" x2="1691.6" y2="309.0" stroke="#0E3B3F" stroke-width="1.8" stroke-linecap="round"/>
<line x1="1739.6" y1="399.7" x2="1737.9" y2="352.4" stroke="#0E3B3F" stroke-width="3.8" stroke-linecap="round"/>
<line x1="1737.9" y1="352.4" x2="1724.6" y2="321.7" stroke="#0E3B3F" stroke-width="2.2" stroke-linecap="round"/>
<line x1="1724.6" y1="321.7" x2="1707.6" y2="303.5" stroke="#0E3B3F" stroke-width="1.8" stroke-linecap="round"/>
<line x1="1724.6" y1="321.7" x2="1721.2" y2="297.0" stroke="#0E3B3F" stroke-width="1.8" stroke-linecap="round"/>
<line x1="1737.9" y1="352.4" x2="1749.8" y2="321.3" stroke="#0E3B3F" stroke-width="2.2" stroke-linecap="round"/>
<line x1="1749.8" y1="321.3" x2="1748.2" y2="297.7" stroke="#0E3B3F" stroke-width="1.8" stroke-linecap="round"/>
<line x1="1749.8" y1="321.3" x2="1765.9" y2="303.8" stroke="#0E3B3F" stroke-width="1.8" stroke-linecap="round"/>
<line x1="1766.4" y1="460.1" x2="1787.5" y2="398.0" stroke="#0E3B3F" stroke-width="5.4" stroke-linecap="round"/>
<line x1="1787.5" y1="398.0" x2="1789.5" y2="352.0" stroke="#0E3B3F" stroke-width="3.8" stroke-linecap="round"/>
<line x1="1789.5" y1="352.0" x2="1776.7" y2="321.9" stroke="#0E3B3F" stroke-width="2.2" stroke-linecap="round"/>
<line x1="1776.7" y1="321.9" x2="1760.5" y2="305.2" stroke="#0E3B3F" stroke-width="1.8" stroke-linecap="round"/>
<line x1="1776.7" y1="321.9" x2="1775.0" y2="297.2" stroke="#0E3B3F" stroke-width="1.8" stroke-linecap="round"/>
<line x1="1789.5" y1="352.0" x2="1804.2" y2="320.8" stroke="#0E3B3F" stroke-width="2.2" stroke-linecap="round"/>
<line x1="1804.2" y1="320.8" x2="1807.9" y2="296.2" stroke="#0E3B3F" stroke-width="1.8" stroke-linecap="round"/>
<line x1="1804.2" y1="320.8" x2="1820.4" y2="302.0" stroke="#0E3B3F" stroke-width="1.8" stroke-linecap="round"/>
<line x1="1787.5" y1="398.0" x2="1817.2" y2="361.1" stroke="#0E3B3F" stroke-width="3.8" stroke-linecap="round"/>
<line x1="1817.2" y1="361.1" x2="1827.0" y2="327.1" stroke="#0E3B3F" stroke-width="2.2" stroke-linecap="round"/>
<line x1="1827.0" y1="327.1" x2="1826.1" y2="301.3" stroke="#0E3B3F" stroke-width="1.8" stroke-linecap="round"/>
<line x1="1827.0" y1="327.1" x2="1843.8" y2="307.3" stroke="#0E3B3F" stroke-width="1.8" stroke-linecap="round"/>
<line x1="1817.2" y1="361.1" x2="1847.0" y2="343.3" stroke="#0E3B3F" stroke-width="2.2" stroke-linecap="round"/>
<line x1="1847.0" y1="343.3" x2="1861.6" y2="323.6" stroke="#0E3B3F" stroke-width="1.8" stroke-linecap="round"/>
<line x1="1847.0" y1="343.3" x2="1871.0" y2="337.4" stroke="#0E3B3F" stroke-width="1.8" stroke-linecap="round"/>
<circle cx="1766.4" cy="460.1" r="9" fill="#F1F6F4" stroke="#0E3B3F" stroke-width="3.5"/>
<circle cx="1739.6" cy="399.7" r="7" fill="#F1F6F4" stroke="#0E3B3F" stroke-width="3.5"/>
<circle cx="1708.3" cy="364.8" r="6" fill="#F1F6F4" stroke="#0E3B3F" stroke-width="3.5"/>
<circle cx="1677.5" cy="349.3" r="4" fill="#F1F6F4" stroke="#0E3B3F" stroke-width="3.5"/>
<circle cx="1693.4" cy="333.6" r="4" fill="#F1F6F4" stroke="#0E3B3F" stroke-width="3.5"/>
<circle cx="1737.9" cy="352.4" r="6" fill="#F1F6F4" stroke="#0E3B3F" stroke-width="3.5"/>
<circle cx="1724.6" cy="321.7" r="4" fill="#F1F6F4" stroke="#0E3B3F" stroke-width="3.5"/>
<circle cx="1749.8" cy="321.3" r="4" fill="#F1F6F4" stroke="#0E3B3F" stroke-width="3.5"/>
<circle cx="1787.5" cy="398.0" r="7" fill="#F1F6F4" stroke="#0E3B3F" stroke-width="3.5"/>
<circle cx="1789.5" cy="352.0" r="6" fill="#F1F6F4" stroke="#0E3B3F" stroke-width="3.5"/>
<circle cx="1776.7" cy="321.9" r="4" fill="#F1F6F4" stroke="#0E3B3F" stroke-width="3.5"/>
<circle cx="1804.2" cy="320.8" r="4" fill="#F1F6F4" stroke="#0E3B3F" stroke-width="3.5"/>
<circle cx="1817.2" cy="361.1" r="6" fill="#F1F6F4" stroke="#0E3B3F" stroke-width="3.5"/>
<circle cx="1827.0" cy="327.1" r="4" fill="#F1F6F4" stroke="#0E3B3F" stroke-width="3.5"/>
<circle cx="1847.0" cy="343.3" r="4" fill="#F1F6F4" stroke="#0E3B3F" stroke-width="3.5"/>
<circle cx="1653.1" cy="344.7" r="8" fill="#D42F4A"/>
<circle cx="1658.7" cy="332.0" r="8" fill="#2E7D5B"/>
<circle cx="1676.6" cy="314.8" r="8" fill="#2E7D5B"/>
<circle cx="1691.6" cy="309.0" r="8" fill="#2E7D5B"/>
<circle cx="1707.6" cy="303.5" r="8" fill="#D42F4A"/>
<circle cx="1721.2" cy="297.0" r="8" fill="#2E7D5B"/>
<circle cx="1748.2" cy="297.7" r="8" fill="#2E7D5B"/>
<circle cx="1765.9" cy="303.8" r="8" fill="#2E7D5B"/>
<circle cx="1760.5" cy="305.2" r="8" fill="#D42F4A"/>
<circle cx="1775.0" cy="297.2" r="8" fill="#2E7D5B"/>
<circle cx="1807.9" cy="296.2" r="8" fill="#D42F4A"/>
<circle cx="1820.4" cy="302.0" r="8" fill="#D42F4A"/>
<circle cx="1826.1" cy="301.3" r="8" fill="#D42F4A"/>
<circle cx="1843.8" cy="307.3" r="8" fill="#D42F4A"/>
<circle cx="1861.6" cy="323.6" r="8" fill="#D42F4A"/>
<circle cx="1871.0" cy="337.4" r="8" fill="#2E7D5B"/>
<text x="110" y="135" font-family="DejaVu Serif, Liberation Serif, serif" font-weight="700" font-size="76" fill="#0E3B3F">Heart Disease</text>
<text x="110" y="215" font-family="DejaVu Serif, Liberation Serif, serif" font-weight="700" font-size="76" fill="#0E3B3F">Prediction</text>
<text x="112" y="268" font-family="Liberation Sans, Arial, sans-serif" font-size="30" fill="#5A6E73">A Random Forest model on the Cleveland dataset</text>
<text x="112" y="365" font-family="DejaVu Serif, serif" font-weight="700" font-size="48" fill="#0E3B3F">90.2%</text>
<text x="114" y="397" font-family="Liberation Sans, Arial, sans-serif" font-size="24" fill="#5A6E73">accuracy</text>
<text x="322" y="365" font-family="DejaVu Serif, serif" font-weight="700" font-size="48" fill="#0E3B3F">0.959</text>
<text x="324" y="397" font-family="Liberation Sans, Arial, sans-serif" font-size="24" fill="#5A6E73">ROC-AUC</text>
<text x="532" y="365" font-family="DejaVu Serif, serif" font-weight="700" font-size="48" fill="#D42F4A">96.4%</text>
<text x="534" y="397" font-family="Liberation Sans, Arial, sans-serif" font-size="24" fill="#5A6E73">recall</text>
<text x="112" y="618" font-family="Liberation Sans, Arial, sans-serif" font-size="24" fill="#5A6E73">Python · scikit-learn · XGBoost · 303 patients · 13 clinical features</text>
</svg>